<svg xmlns="http://www.w3.org/2000/svg" width="85" height="41" fill="none" viewBox="0 0 85 41"><path fill="#2196f3" d="M13.146 12.403h-.003c-2.398 0-4.342 1.727-4.342 3.859v.002c0 2.131 1.944 3.859 4.342 3.859h.003c2.398 0 4.342-1.728 4.342-3.859v-.002c0-2.132-1.944-3.86-4.342-3.86M45.195 11.17c-.007-2.96-1.333-5.798-3.688-7.891C39.153 1.186 35.96.007 32.63 0c-3.332.005-6.526 1.184-8.882 3.277s-3.683 4.931-3.69 7.892v16.323s25.134-2.488 25.137-16.32zM0 32.85c.006 2.06.93 4.033 2.568 5.49s3.859 2.277 6.176 2.283c2.317-.006 4.537-.827 6.176-2.283 1.638-1.456 2.562-3.429 2.568-5.488V21.494S0 23.227 0 32.85m8.744 2.035c-.453 0-.895-.12-1.272-.343a2.1 2.1 0 0 1-.843-.914 1.83 1.83 0 0 1-.13-1.175c.088-.395.306-.758.626-1.042a2.4 2.4 0 0 1 1.172-.557 2.56 2.56 0 0 1 1.323.116c.419.154.777.414 1.028.749.252.335.386.728.386 1.13a1.84 1.84 0 0 1-.172.782 2 2 0 0 1-.496.662c-.212.19-.465.34-.744.444a2.5 2.5 0 0 1-.878.155zM26.418 33.764H24.73v1.743h-.879v-4.266h2.778v.712H24.73v1.102h1.688zm4.224-.293q0 .63-.222 1.104-.223.474-.64.733a1.76 1.76 0 0 1-.948.258q-.531 0-.947-.255a1.7 1.7 0 0 1-.644-.727 2.5 2.5 0 0 1-.232-1.09v-.21q0-.63.226-1.108.228-.48.642-.735.415-.258.949-.258.532 0 .946.258.416.255.642.735.228.477.228 1.104zm-.89-.193q0-.672-.24-1.02a.78.78 0 0 0-.686-.349.78.78 0 0 0-.683.346q-.24.342-.243 1.008v.208q0 .653.24 1.014.24.36.692.36a.78.78 0 0 0 .68-.346q.237-.348.24-1.014zm3.74 1.11a.45.45 0 0 0-.175-.381q-.175-.135-.633-.281a4.6 4.6 0 0 1-.723-.293q-.727-.392-.727-1.058 0-.345.193-.615.197-.272.56-.425.367-.152.82-.152.457 0 .815.167.357.164.553.466.2.301.2.685h-.88q.001-.293-.184-.454-.185-.165-.518-.164-.322 0-.501.138a.43.43 0 0 0-.179.357q0 .208.208.349a2.4 2.4 0 0 0 .618.263q.75.225 1.093.56.343.334.343.832 0 .555-.42.87-.418.314-1.127.314-.492 0-.897-.18a1.44 1.44 0 0 1-.618-.494 1.27 1.27 0 0 1-.21-.727h.881q0 .706.844.706.313 0 .49-.126a.42.42 0 0 0 .175-.357m4.691-2.435h-1.306v3.554h-.88v-3.554H34.71v-.712h3.474zm3.07 1.705h-1.687v1.143h1.98v.706h-2.859v-4.266h2.854v.712h-1.975v1.017h1.688zm2.388.287h-.7v1.562h-.879v-4.266h1.585q.756 0 1.166.337t.41.952q0 .437-.19.73a1.3 1.3 0 0 1-.571.463l.922 1.743v.041h-.943zm-.7-.712h.71q.33 0 .512-.166a.6.6 0 0 0 .181-.466q0-.302-.172-.475-.17-.173-.525-.173h-.706zm5.326.771v1.503h-.879v-4.266h1.664q.48 0 .844.176.366.176.563.501.196.323.196.735 0 .628-.43.99-.428.36-1.187.361zm0-.712h.785q.35 0 .53-.164.186-.165.185-.469a.7.7 0 0 0-.184-.506q-.184-.195-.51-.2h-.806zm5.56.366H52.14v1.143h1.98v.706h-2.859v-4.266h2.854v.712H52.14v1.017h1.688zm4.079-1.705h-1.307v3.554h-.879v-3.554h-1.289v-.712h3.475zm3.07 1.705H59.29v1.143h1.98v.706h-2.86v-4.266h2.854v.712H59.29v1.017h1.687zm2.388.287h-.7v1.562h-.88v-4.266h1.586q.755 0 1.166.337t.41.952q0 .437-.19.73a1.3 1.3 0 0 1-.572.463l.923 1.743v.041h-.943zm-.7-.712h.709q.33 0 .512-.166a.6.6 0 0 0 .182-.466q0-.302-.173-.475-.17-.173-.524-.173h-.706zm5.165 1.155a.45.45 0 0 0-.176-.381q-.176-.135-.633-.281a4.6 4.6 0 0 1-.723-.293q-.727-.392-.727-1.058 0-.345.193-.615.197-.272.56-.425.367-.152.82-.152.457 0 .815.167.358.164.553.466.2.301.2.685h-.88q.001-.293-.184-.454-.185-.165-.518-.164-.323 0-.501.138a.43.43 0 0 0-.18.357q0 .208.209.349.21.14.618.263.75.225 1.093.56.343.334.343.832 0 .555-.42.87-.419.314-1.127.314-.492 0-.897-.18a1.44 1.44 0 0 1-.618-.494 1.27 1.27 0 0 1-.21-.727h.881q0 .706.844.706.314 0 .489-.126a.42.42 0 0 0 .176-.357"/></svg>